<svg width="47" height="76" viewBox="0 0 47 76" fill="none" xmlns="http://www.w3.org/2000/svg">
<path d="M42.3 0H4.7C2.10207 0 0 2.12444 0 4.75V71.25C0 73.8756 2.10207 76 4.7 76H42.3C44.8979 76 47 73.8756 47 71.25V4.75C47 2.12444 44.8979 0 42.3 0ZM44.65 71.25C44.65 72.561 43.5972 73.625 42.3 73.625H4.7C3.4028 73.625 2.35 72.561 2.35 71.25V61.75H44.65V71.25ZM44.65 59.375H2.35V11.875H44.65V59.375ZM44.65 9.5H2.35V4.75C2.35 3.439 3.4028 2.375 4.7 2.375H42.3C43.5972 2.375 44.65 3.439 44.65 4.75V9.5Z" fill="#3893A4"/>
<path d="M23.5 71.25C25.4481 71.25 27.025 69.6564 27.025 67.6875C27.025 65.7186 25.4481 64.125 23.5 64.125C21.5518 64.125 19.975 65.7186 19.975 67.6875C19.975 69.6564 21.5518 71.25 23.5 71.25ZM23.5 66.5C24.1497 66.5 24.675 67.0308 24.675 67.6875C24.675 68.3442 24.1497 68.875 23.5 68.875C22.8502 68.875 22.325 68.3442 22.325 67.6875C22.325 67.0308 22.8502 66.5 23.5 66.5Z" fill="#3893A4"/>
<path d="M24.6751 4.75H17.6251C16.9753 4.75 16.4501 5.28081 16.4501 5.9375C16.4501 6.59419 16.9753 7.125 17.6251 7.125H24.6751C25.3248 7.125 25.8501 6.59419 25.8501 5.9375C25.8501 5.28081 25.3248 4.75 24.6751 4.75Z" fill="#3893A4"/>
<path d="M29.3751 7.125C30.024 7.125 30.5501 6.59334 30.5501 5.9375C30.5501 5.28166 30.024 4.75 29.3751 4.75C28.7261 4.75 28.2001 5.28166 28.2001 5.9375C28.2001 6.59334 28.7261 7.125 29.3751 7.125Z" fill="#3893A4"/>
</svg>
