<svg width="92" height="78" viewBox="0 0 92 78" fill="none" xmlns="http://www.w3.org/2000/svg">
<path d="M89.8828 0H1.52344C0.609375 0 0 0.52 0 1.3V61.1C0 61.88 0.609375 62.4 1.52344 62.4H35.0391V75.4H30.4688V78H36.5625H54.8438H60.9375V75.4H56.3672V62.4H89.8828C90.7969 62.4 91.4062 61.88 91.4062 61.1V1.3C91.4062 0.52 90.7969 0 89.8828 0ZM53.3203 75.4H38.0859V62.4H53.3203V75.4ZM88.3594 59.8H54.8438H36.5625H3.04688V49.4H7.61719H41.1328H50.2734H83.7891H88.3594V59.8ZM51.4922 21.19L47.0742 11.31C46.9219 10.92 46.3125 10.53 45.7031 10.53C45.0937 10.53 44.4844 10.79 44.332 11.31L39.9141 21.19C39.7617 21.45 39.6094 21.71 39.6094 22.1V46.8H9.14062V7.8H82.2656V46.8H51.7969V22.1C51.7969 21.71 51.6445 21.45 51.4922 21.19ZM43.2656 20.8L45.5508 15.34L47.9883 20.8H43.2656ZM44.1797 23.4V46.8H42.6562V23.4H44.1797ZM47.2266 23.4H48.75V46.8H47.2266V23.4ZM88.3594 46.8H85.3125V6.5C85.3125 5.72 84.7031 5.2 83.7891 5.2H7.61719C6.70312 5.2 6.09375 5.72 6.09375 6.5V46.8H3.04688V2.6H88.3594V46.8Z" fill="#3893A4"/>
<path d="M77.6953 32.5008V22.1008C77.6953 21.3208 77.0859 20.8008 76.1719 20.8008H57.8906V22.1008V23.4008V27.3008H60.9375V23.4008H67.0313V27.3008H70.0781V23.4008H74.6484V31.2008H57.8906V33.8008H76.1719C77.0859 33.8008 77.6953 33.2808 77.6953 32.5008Z" fill="#3893A4"/>
<path d="M13.7109 22.1008V32.5008C13.7109 33.2808 14.3203 33.8008 15.2344 33.8008H33.5156V31.2008H16.7578V23.4008H21.3281V27.3008H24.375V23.4008H30.4688V27.3008H33.5156V23.4008V22.1008V20.8008H15.2344C14.3203 20.8008 13.7109 21.3208 13.7109 22.1008Z" fill="#3893A4"/>
<path d="M21.3262 36.3984H18.2793V38.9984H21.3262V36.3984Z" fill="#3893A4"/>
<path d="M27.4219 36.3984H24.375V38.9984H27.4219V36.3984Z" fill="#3893A4"/>
<path d="M33.5137 36.3984H30.4668V38.9984H33.5137V36.3984Z" fill="#3893A4"/>
<path d="M60.9375 36.3984H57.8906V38.9984H60.9375V36.3984Z" fill="#3893A4"/>
<path d="M67.0293 36.3984H63.9824V38.9984H67.0293V36.3984Z" fill="#3893A4"/>
<path d="M73.125 36.3984H70.0781V38.9984H73.125V36.3984Z" fill="#3893A4"/>
<path d="M60.9375 15.6016H57.8906V18.2016H60.9375V15.6016Z" fill="#3893A4"/>
<path d="M67.0293 15.6016H63.9824V18.2016H67.0293V15.6016Z" fill="#3893A4"/>
<path d="M73.125 15.6016H70.0781V18.2016H73.125V15.6016Z" fill="#3893A4"/>
<path d="M21.3262 15.6016H18.2793V18.2016H21.3262V15.6016Z" fill="#3893A4"/>
<path d="M27.4219 15.6016H24.375V18.2016H27.4219V15.6016Z" fill="#3893A4"/>
<path d="M33.5137 15.6016H30.4668V18.2016H33.5137V15.6016Z" fill="#3893A4"/>
</svg>
