<svg width="49" height="72" viewBox="0 0 49 72" fill="none" xmlns="http://www.w3.org/2000/svg">
<path d="M44.0744 5.94359C46.9875 6.84871 49.0013 9.797 49.0013 13.1561V57.8998C49.0013 61.2891 46.9449 64.2481 43.9938 65.1283L25.75 70.888L31.6142 56.9058V12.4501L26.6383 0.207031L44.0744 5.94359Z" fill="#3893A4"/>
<path d="M31.6123 55.125V62.1081C31.6123 68.8707 25.5679 73.2202 20.5178 70.0941L9.55443 62.1899C8.28675 61.3612 7.60075 59.5901 8.03068 57.8208C8.43059 56.1742 9.80259 55.125 11.2457 55.125H31.6123Z" fill="#285963"/>
<path d="M10.2046 50.1973L4.83045 52.8682C2.67761 54.2943 0 52.4912 0 49.6158V19.3913C0 16.6599 1.2819 14.1455 3.34465 12.8279L22.0437 0.93687C26.3478 -1.80693 31.6129 1.80465 31.6129 7.50208V12.9968L15.748 19.1957C13.8781 20.0297 12.6452 22.1155 12.6452 24.4397V45.3196C12.6452 47.3343 11.7126 49.1961 10.2046 50.1973Z" fill="#285963"/>
</svg>
