<svg width="70" height="57" viewBox="0 0 70 57" fill="none" xmlns="http://www.w3.org/2000/svg">
<path d="M31.8366 13.0683H26.8317C26.1366 13.0683 25.3024 12.7902 25.0244 12.2341L24.1902 11.122C23.7732 10.5659 23.7732 10.0098 24.1902 9.45366C24.8854 8.48049 25.3024 7.50732 25.3024 6.39512C25.4415 4.86585 24.7463 3.47561 23.7732 2.36341C22.3829 0.834146 20.2976 0 18.2122 0C15.9878 0 13.9024 0.695121 12.5122 2.22439C11.4 3.33658 10.7049 4.72683 10.7049 6.2561C10.7049 7.50732 11.122 8.61951 11.8171 9.59268C12.2341 10.0098 12.0951 10.7049 11.8171 11.261L10.9829 12.3732C10.5659 12.9293 9.87073 13.2073 9.17561 13.2073H1.39024C0.556097 13.2073 0 13.7634 0 14.5976V55.6098C0 56.4439 0.556097 57 1.39024 57H31.8366C34.2 57 36.0073 55.0537 36.0073 52.8293V44.9049C36.0073 42.8195 35.0341 41.1512 33.2268 40.178C31.1415 39.0659 28.361 39.0659 26.6927 40.039C25.9976 40.4561 25.1634 40.7341 24.3293 40.7341C21.4098 40.7341 19.8805 38.6488 19.8805 34.8951C19.8805 32.9488 20.4366 31.4195 21.4098 30.3073C22.2439 29.4732 23.2171 29.1951 24.4683 29.1951C25.3024 29.1951 25.9976 29.4732 26.5537 29.7512C28.0829 30.8634 30.8634 30.5854 32.8098 29.6122C34.8951 28.639 36.0073 26.8317 36.0073 24.8854V17.378C36.0073 15.0146 34.2 13.0683 31.8366 13.0683Z" fill="#3893A4"/>
<path d="M58.1122 29.0559C58.9464 29.0559 59.6415 29.334 60.1976 29.612C61.7268 30.7242 64.5073 30.4462 66.4537 29.473C68.539 28.4998 69.6512 26.6925 69.6512 24.7462V14.4584C69.6512 13.6242 69.0951 13.0681 68.261 13.0681H39.0659C38.2317 13.0681 37.6756 13.6242 37.6756 14.4584C37.6756 15.2925 38.2317 15.8486 39.0659 15.8486H66.7317V24.8852C66.7317 25.9974 65.8976 26.6925 65.0634 27.1096C63.6732 27.8047 62.1439 27.8047 61.7269 27.5266C60.7537 26.8315 59.5025 26.4145 58.1122 26.4145C56.1659 26.2754 54.3586 26.9706 53.1073 28.2218C51.9951 29.334 50.6049 31.2803 50.6049 34.7559C50.6049 41.151 54.3586 43.3754 57.8342 43.3754C59.2244 43.3754 60.4756 42.9584 61.5878 42.2632C62.2829 41.8462 63.9512 41.7071 65.2025 42.4023C66.1756 42.9584 66.5927 43.6535 66.5927 44.7657V54.2193H38.7878C37.9537 54.2193 37.3976 54.7754 37.3976 55.6096C37.3976 56.4437 37.9537 56.9998 38.7878 56.9998H68.122C68.9561 56.9998 69.5122 56.4437 69.5122 55.6096V44.7657C69.5122 42.6803 68.539 41.012 66.7317 40.0388C64.6464 38.9267 61.8659 38.9266 60.1976 39.8998C59.5025 40.3169 58.6683 40.5949 57.8342 40.5949C54.9147 40.5949 53.3854 38.5096 53.3854 34.7559C53.3854 32.8096 53.9415 31.2803 54.9147 30.1681C55.8878 29.334 56.861 29.0559 58.1122 29.0559Z" fill="#3893A4"/>
</svg>
