<svg width="80" height="65" viewBox="0 0 80 65" fill="none" xmlns="http://www.w3.org/2000/svg">
<path d="M36.3049 14.9024H30.5976C29.8049 14.9024 28.8537 14.5854 28.5366 13.9512L27.5854 12.6829C27.1098 12.0488 27.1098 11.4146 27.5854 10.7805C28.378 9.67073 28.8537 8.56098 28.8537 7.29268C29.0122 5.54878 28.2195 3.96341 27.1098 2.69512C25.5244 0.951219 23.1463 0 20.7683 0C18.2317 0 15.8537 0.792682 14.2683 2.53658C13 3.80488 12.2073 5.39024 12.2073 7.13415C12.2073 8.56098 12.6829 9.82927 13.4756 10.939C13.9512 11.4146 13.7927 12.2073 13.4756 12.8415L12.5244 14.1098C12.0488 14.7439 11.2561 15.061 10.4634 15.061H1.58537C0.634146 15.061 0 15.6951 0 16.6463V63.4146C0 64.3659 0.634146 65 1.58537 65H36.3049C39 65 41.061 62.7805 41.061 60.2439V51.2073C41.061 48.8293 39.9512 46.9268 37.8902 45.8171C35.5122 44.5488 32.3415 44.5488 30.439 45.6585C29.6463 46.1341 28.6951 46.4512 27.7439 46.4512C24.4146 46.4512 22.6707 44.0732 22.6707 39.7927C22.6707 37.5732 23.3049 35.8293 24.4146 34.561C25.3658 33.6098 26.4756 33.2927 27.9024 33.2927C28.8537 33.2927 29.6463 33.6098 30.2805 33.9268C32.0244 35.1951 35.1951 34.8781 37.4146 33.7683C39.7927 32.6585 41.061 30.5976 41.061 28.378V19.8171C41.061 17.122 39 14.9024 36.3049 14.9024Z" fill="#3893A4"/>
<path d="M66.2683 33.134C67.2195 33.134 68.0122 33.4511 68.6464 33.7682C70.3903 35.0365 73.561 34.7194 75.7805 33.6097C78.1586 32.4999 79.4268 30.4389 79.4268 28.2194V16.4877C79.4268 15.5365 78.7927 14.9023 77.8415 14.9023H44.5488C43.5976 14.9023 42.9634 15.5365 42.9634 16.4877C42.9634 17.4389 43.5976 18.0731 44.5488 18.0731H76.0976V28.378C76.0976 29.6462 75.1464 30.4389 74.1951 30.9145C72.6098 31.7072 70.8659 31.7072 70.3903 31.3901C69.2805 30.5975 67.8537 30.1219 66.2683 30.1219C64.0488 29.9633 61.9878 30.756 60.561 32.1828C59.2927 33.4511 57.7073 35.6706 57.7073 39.634C57.7073 46.9267 61.9878 49.4633 65.9512 49.4633C67.5366 49.4633 68.9634 48.9877 70.2317 48.195C71.0244 47.7194 72.9269 47.5609 74.3537 48.3536C75.4634 48.9877 75.939 49.7804 75.939 51.0487V61.8292H44.2317C43.2805 61.8292 42.6464 62.4633 42.6464 63.4145C42.6464 64.3657 43.2805 64.9999 44.2317 64.9999H77.6829C78.6342 64.9999 79.2683 64.3657 79.2683 63.4145V51.0487C79.2683 48.6706 78.1586 46.7682 76.0976 45.6584C73.7195 44.3901 70.5488 44.3901 68.6464 45.4999C67.8537 45.9755 66.9025 46.2926 65.9512 46.2926C62.622 46.2926 60.8781 43.9145 60.8781 39.634C60.8781 37.4145 61.5122 35.6706 62.622 34.4023C63.7317 33.4511 64.8415 33.134 66.2683 33.134Z" fill="#3893A4"/>
</svg>
