<svg width="80" height="80" viewBox="0 0 80 80" fill="none" xmlns="http://www.w3.org/2000/svg">
<path d="M40.0136 47.9444C43.9617 47.9444 47.1621 44.3476 47.1621 39.9106C47.1621 35.4737 43.9617 31.877 40.0136 31.877C36.0657 31.877 32.8652 35.4737 32.8652 39.9106C32.8652 44.3476 36.0657 47.9444 40.0136 47.9444Z" fill="#30AAC1"/>
<path d="M40.0142 58.3159C29.9751 58.3159 21.2033 56.9877 14.6386 54.459C10.3809 52.8267 6.76398 50.6503 4.18655 48.1697C1.45248 45.5452 0 42.6806 0 39.9119C0 34.5988 5.18335 29.3976 13.884 26.0049C21.0039 23.2204 30.2884 21.668 40.0001 21.668C49.5408 21.668 58.6971 23.1723 65.7743 25.925C69.9181 27.5252 73.407 29.6057 75.8847 31.9102C78.5761 34.4387 80 37.2074 80 39.9119C80 45.4331 74.2044 51.0183 64.863 54.4911C58.2556 56.9556 49.4269 58.3159 40.0142 58.3159ZM40.0142 25.5088C30.801 25.5088 21.6874 27.0132 15.0231 29.6218C7.0203 32.7584 3.43183 37.0473 3.43183 39.9119C3.43183 42.8885 7.29082 47.5776 15.7493 50.8263C21.958 53.2108 30.3595 54.4751 40.0142 54.4751C49.0708 54.4751 57.5152 53.1948 63.795 50.8423C72.581 47.5616 76.5967 42.8726 76.5967 39.9119C76.5967 38.3916 75.5714 36.5992 73.706 34.8549C71.5558 32.8385 68.4229 30.998 64.6779 29.5417C57.9424 26.9491 49.1848 25.5088 40.0142 25.5088Z" fill="#30AAC1"/>
<path d="M23.7945 79.9512C22.3421 79.9512 21.0605 79.5992 19.9783 78.895C15.8914 76.2385 14.4675 68.5888 16.1904 58.4266C17.6002 50.0888 21.0463 40.2946 25.9021 30.8366C30.6724 21.5547 36.3969 13.3929 42.0502 7.87176C45.3539 4.639 48.7002 2.27049 51.7192 1.02222C55.0086 -0.338063 57.8566 -0.338062 59.9355 1.00623C64.1934 3.75881 65.6031 12.2086 63.6095 23.027C62.1997 30.7086 58.8391 39.9746 54.1399 49.1446C49.1274 58.9067 43.7163 66.7804 38.4902 71.9175C35.1012 75.2462 31.6123 77.6788 28.4226 78.943C26.7565 79.6151 25.1901 79.9512 23.7945 79.9512ZM27.3689 31.7968L28.8498 32.757C24.2503 41.719 20.8469 51.337 19.5368 59.1468C17.9562 68.5088 19.4798 74.1419 21.6728 75.5663C22.2139 75.9183 22.926 76.1104 23.7945 76.1104C26.6283 76.1104 31.0855 74.0939 36.2403 69.0369C41.1815 64.1879 46.3506 56.6342 51.178 47.2402C55.7063 38.4222 58.9245 29.5564 60.2631 22.2749C62.1285 12.0806 60.5195 5.83928 58.2268 4.35094C57.0592 3.59878 55.1652 3.6948 52.8868 4.639C50.2524 5.72721 47.2763 7.85571 44.2859 10.7843C38.9174 16.0335 33.4351 23.8432 28.8498 32.7731L27.3689 31.7968Z" fill="#30AAC1"/>
<path d="M56.233 79.9999C52.3598 79.9999 47.447 77.3754 42.3206 72.4143C36.5961 66.8772 30.7719 58.6353 25.9019 49.1773C21.1173 39.8954 17.6997 30.2453 16.2615 21.9715C15.4214 17.1385 15.2646 12.7055 15.8058 9.13664C16.4039 5.24786 17.8137 2.47927 19.9069 1.11897C24.1504 -1.64962 31.37 1.19899 38.7178 8.54461C43.9297 13.7456 49.3978 21.6514 54.1113 30.8054C59.1379 40.5675 62.5128 49.7694 63.8514 57.4191C64.7199 62.3801 64.8624 66.9891 64.25 70.7339C63.5951 74.7188 62.114 77.5514 59.978 78.9437C58.91 79.6479 57.6427 79.9999 56.233 79.9999ZM28.8638 47.2568C33.4776 56.2189 39.202 64.3326 44.5562 69.5017C50.9784 75.7111 56.0764 77.0554 58.2835 75.615C60.5761 74.1267 62.2565 68.0294 60.5192 58.1712C59.2376 50.9377 56.0051 42.1358 51.1636 32.7418C46.621 23.9238 41.3949 16.3542 36.4537 11.4252C29.5331 4.5117 23.9225 2.95937 21.6299 4.44769C20.4622 5.19985 19.5936 7.1043 19.1807 9.79288C18.7108 12.8975 18.8531 16.8663 19.6221 21.2352C20.9891 29.093 24.2642 38.3269 28.8638 47.2568Z" fill="#30AAC1"/>
</svg>
