<svg width="127" height="116" viewBox="0 0 127 116" fill="none" xmlns="http://www.w3.org/2000/svg">
<path d="M0 20C0 8.9543 8.95431 0 20 0H107C118.046 0 127 8.95431 127 20V96C127 107.046 118.046 116 107 116H20C8.9543 116 0 107.046 0 96V20Z" fill="#323330"/>
<path d="M29 35.6993V33.75C29 32.4902 29.4609 31.282 30.2814 30.3912C31.1019 29.5004 32.2147 29 33.375 29H94.625C95.7853 29 96.8981 29.5004 97.7186 30.3912C98.5391 31.282 99 32.4902 99 33.75V35.6993L64 59.4493L29 35.6993ZM65.1594 64.2646C64.8116 64.5002 64.4099 64.6252 64 64.6252C63.5901 64.6252 63.1884 64.5002 62.8406 64.2646L29 41.3007V81.25C29 82.5098 29.4609 83.718 30.2814 84.6088C31.1019 85.4996 32.2147 86 33.375 86H94.625C95.7853 86 96.8981 85.4996 97.7186 84.6088C98.5391 83.718 99 82.5098 99 81.25V41.3007L65.1594 64.2646Z" fill="white"/>
</svg>
