<svg width="127" height="116" viewBox="0 0 127 116" fill="none" xmlns="http://www.w3.org/2000/svg">
<path d="M127 20C127 8.9543 118.046 0 107 0H20C8.9543 0 0 8.95431 0 20V96C0 107.046 8.95431 116 20 116H107C118.046 116 127 107.046 127 96V20Z" fill="#323330"/>
<path d="M75.5971 93C74.4533 92.5154 73.6522 91.3959 73.6522 90.0926V81.5414C73.6522 81.2295 73.6264 80.9049 73.5862 80.5755C73.6087 80.5818 73.6297 80.5866 73.6522 80.5913C73.6522 80.5913 78.4783 80.5913 79.4435 80.5913C81.8565 80.5913 83.9478 79.6412 84.913 77.7409C86.0391 75.6823 86.5217 72.1985 89.4174 70.2982C89.9 69.9815 89.5783 69.5065 88.613 69.5065C87.6478 69.6648 85.5565 70.9317 84.2696 72.6736C82.8217 74.4155 81.3739 75.8407 78.8 75.8407C74.7992 75.8407 72.6548 75.6427 71.3646 74.9618C69.8621 72.7622 67.782 71.09 65.6087 71.09V71.0504C74.7268 70.7622 80.5519 67.7788 83.2641 63.1723C89.16 63.2388 94.2933 63.8136 97.2228 64.2918C97.3161 63.774 97.3965 63.253 97.4657 62.7289C94.5749 62.2601 89.6748 61.7043 84.0411 61.5982C84.2213 61.1612 84.3773 60.713 84.5093 60.2538C90.1574 59.9719 95.0317 60.192 97.6797 60.4074C97.7118 59.8817 97.7553 59.3575 97.7617 58.8254C95.109 58.6116 90.3665 58.3979 84.8632 58.6497C84.9903 57.8579 85.0723 57.0487 85.0723 56.2062C85.0723 53.5142 84.1071 50.6638 82.3375 48.2885C83.1419 45.5965 84.268 39.8957 82.0158 37.8371C77.6723 37.8371 74.6158 39.8957 73.168 41.1625C70.4348 40.0525 67.3783 39.419 64 39.419C60.6217 39.419 57.5652 40.0525 54.9913 41.1609C53.5435 39.8941 50.487 37.8355 46.1435 37.8355C43.7304 40.0525 45.0174 45.7532 45.8217 48.2869C44.0522 50.6622 43.087 53.3543 43.2478 56.2047C43.2478 56.9711 43.3202 57.7106 43.4248 58.4359C37.796 58.1635 32.9248 58.382 30.227 58.5974C30.2303 59.1311 30.2801 59.652 30.3091 60.1794C32.9972 59.9608 37.9906 59.736 43.7562 60.0384C43.8993 60.5705 44.0731 61.0883 44.279 61.5903C38.5746 61.6631 33.557 62.2063 30.5279 62.6814C30.597 63.2071 30.6775 63.7281 30.7708 64.2443C33.8466 63.7598 39.0893 63.1929 45.0544 63.1644C47.7329 67.7218 53.4518 70.6941 62.3913 71.0409V71.09C58.2087 71.09 54.3478 77.2659 54.3478 81.5414V90.0926C54.3478 91.3959 53.5467 92.5154 52.4029 93C37.6657 88.1987 27 74.5168 27 58.4216C27 38.3391 43.5969 22 64 22C84.4031 22 101 38.3391 101 58.4216C101 74.5168 90.3343 88.1987 75.5971 93Z" fill="white"/>
</svg>
