<svg width="28" height="28" viewBox="0 0 28 28" fill="none" xmlns="http://www.w3.org/2000/svg">
<path d="M13.993 0C6.258 0 0 6.265 0 14C0 21.735 6.258 28 13.993 28C21.728 28 28 21.735 28 14C28 6.265 21.728 0 13.993 0ZM23.688 8.4H19.558C19.103 6.65 18.466 4.97 17.626 3.416C20.202 4.298 22.344 6.083 23.688 8.4ZM14 2.849C15.169 4.529 16.079 6.398 16.674 8.4H11.326C11.921 6.398 12.831 4.529 14 2.849ZM3.164 16.8C2.933 15.904 2.8 14.966 2.8 14C2.8 13.034 2.933 12.096 3.164 11.2H7.889C7.777 12.117 7.7 13.048 7.7 14C7.7 14.952 7.777 15.883 7.896 16.8H3.164ZM4.305 19.6H8.435C8.89 21.35 9.527 23.03 10.367 24.591C7.791 23.709 5.649 21.917 4.305 19.6ZM8.435 8.4H4.305C5.649 6.083 7.791 4.291 10.367 3.409C9.527 4.97 8.89 6.65 8.435 8.4ZM14 25.151C12.838 23.471 11.928 21.602 11.326 19.6H16.674C16.072 21.602 15.162 23.471 14 25.151ZM17.276 16.8H10.724C10.591 15.883 10.5 14.952 10.5 14C10.5 13.048 10.591 12.117 10.724 11.2H17.276C17.409 12.117 17.5 13.048 17.5 14C17.5 14.952 17.409 15.883 17.276 16.8ZM17.633 24.584C18.473 23.023 19.11 21.35 19.565 19.6H23.695C22.344 21.917 20.202 23.702 17.633 24.584ZM20.104 16.8C20.216 15.883 20.3 14.952 20.3 14C20.3 13.048 20.223 12.117 20.104 11.2H24.829C25.06 12.096 25.2 13.034 25.2 14C25.2 14.966 25.067 15.904 24.829 16.8H20.104Z" fill="white"/>
</svg>
