<svg width="60" height="60" viewBox="0 0 60 60" fill="none" xmlns="http://www.w3.org/2000/svg">
<path d="M29.5627 31.1228C28.3152 29.1115 27.4102 27.444 26.1564 24.304C24.0364 19.0003 39.0502 14.2078 32.9627 4.99902C35.6014 11.3603 23.4914 15.2928 22.3664 20.5903C21.3377 25.4628 29.5564 31.1228 29.5627 31.1228Z" fill="#F44336"/>
<path d="M29.8475 21.5878C29.6075 24.7328 32.6338 26.409 32.7213 28.7065C32.7913 30.5765 30.9125 32.1353 30.9125 32.1353C30.9125 32.1353 34.3225 31.4653 35.3863 28.6128C36.5675 25.4453 33.0938 23.2765 33.4513 20.7403C33.785 18.3178 40.99 13.8115 40.99 13.8115C40.99 13.8115 30.3888 14.514 29.8475 21.5878Z" fill="#F44336"/>
<path d="M40.1048 31.3188C42.2973 30.8263 44.146 32.2225 44.146 33.8313C44.146 37.4575 39.1198 40.885 39.1198 40.885C39.1198 40.885 46.901 39.9575 46.901 34.0038C46.901 30.0663 43.0798 29.0825 40.1048 31.3188ZM36.411 34.2438C36.411 34.2438 38.8373 32.515 39.4835 31.8663C33.5298 33.13 19.936 33.3 19.936 32.2025C19.936 31.1913 24.3198 30.155 24.3198 30.155C24.3198 30.155 14.6035 30.015 14.6035 32.8813C14.6035 35.8688 27.3223 36.0825 36.411 34.2438Z" fill="#1565C0"/>
<path d="M34.9178 36.9639C29.2816 38.8377 18.9003 38.2389 21.9753 35.7227C20.4778 35.7227 18.2578 36.9264 18.2578 38.0839C18.2578 40.4052 29.4853 42.1977 37.7953 38.7989L34.9178 36.9639Z" fill="#1565C0"/>
<path d="M23.357 40.9238C21.312 40.9238 19.9883 42.2413 19.9883 43.2013C19.9883 46.1901 32.1883 46.4913 37.022 43.4576L33.9495 41.4176C30.3383 43.0051 21.267 43.2238 23.357 40.9238Z" fill="#1565C0"/>
<path d="M45.3512 45.7904C45.3512 44.6204 44.0325 44.0691 43.56 43.8054C46.345 50.5216 15.6637 50.0004 15.6637 46.0354C15.6637 45.1341 17.9225 44.2516 20.01 44.6691L18.235 43.6204C14.075 42.9679 11.25 44.7966 11.25 46.2716C11.25 53.1504 45.3512 52.8191 45.3512 45.7904Z" fill="#1565C0"/>
<path d="M48.7497 48.2549C43.5672 53.3736 30.4259 55.2386 17.2109 52.0761C30.4259 57.7049 48.6872 54.5349 48.7497 48.2549Z" fill="#1565C0"/>
</svg>
