<svg width="58" height="58" viewBox="0 0 58 58" fill="none" xmlns="http://www.w3.org/2000/svg">
<g filter="url(#filter0_d_46_14)">
<path d="M54 0H4V50H54V0Z" fill="#F0DB4F"/>
<path d="M31.2105 38.996C31.2105 43.862 28.3533 46.083 24.1903 46.083C20.4292 46.083 18.2529 44.1411 17.1367 41.7863L20.9648 39.476C21.7014 40.7818 22.3711 41.8866 23.9894 41.8866C25.5295 41.8866 26.5119 41.284 26.5119 38.9292V22.958H31.2105V38.996Z" fill="#323330"/>
<path d="M42.3259 46.0822C37.9621 46.0822 35.1385 44.0062 33.7656 41.2831L37.5938 39.0731C38.5983 40.7139 39.9151 41.9303 42.2255 41.9303C44.1675 41.9303 45.4172 40.9594 45.4172 39.6091C45.4172 38.0018 44.1451 37.4329 41.9911 36.4841L40.8193 35.9819C37.4264 34.5421 35.183 32.7229 35.183 28.8949C35.183 25.3681 37.8727 22.6895 42.0579 22.6895C45.049 22.6895 47.1918 23.7274 48.7321 26.4507L45.0713 28.7944C44.2678 27.3546 43.3972 26.7856 42.0468 26.7856C40.6739 26.7856 39.8034 27.6562 39.8034 28.7944C39.8034 30.2007 40.6739 30.77 42.6941 31.6514L43.8658 32.1537C47.8614 33.8613 50.1047 35.6137 50.1047 39.5422C50.1049 43.7607 46.7789 46.0822 42.3259 46.0822Z" fill="#323330"/>
</g>
<defs>
<filter id="filter0_d_46_14" x="0" y="0" width="58" height="58" filterUnits="userSpaceOnUse" color-interpolation-filters="sRGB">
<feFlood flood-opacity="0" result="BackgroundImageFix"/>
<feColorMatrix in="SourceAlpha" type="matrix" values="0 0 0 0 0 0 0 0 0 0 0 0 0 0 0 0 0 0 127 0" result="hardAlpha"/>
<feOffset dy="4"/>
<feGaussianBlur stdDeviation="2"/>
<feComposite in2="hardAlpha" operator="out"/>
<feColorMatrix type="matrix" values="0 0 0 0 0 0 0 0 0 0 0 0 0 0 0 0 0 0 0.25 0"/>
<feBlend mode="normal" in2="BackgroundImageFix" result="effect1_dropShadow_46_14"/>
<feBlend mode="normal" in="SourceGraphic" in2="effect1_dropShadow_46_14" result="shape"/>
</filter>
</defs>
</svg>
