<svg width="68" height="68" viewBox="0 0 68 68" fill="none" xmlns="http://www.w3.org/2000/svg">
<g filter="url(#filter0_d_46_14)">
<path d="M64 0H4V60H64V0Z" fill="#F0DB4F"/>
<path d="M36.6523 46.7954C36.6523 52.6346 33.2236 55.2998 28.2279 55.2998C23.7147 55.2998 21.1031 52.9696 19.7637 50.1438L24.3574 47.3714C25.2413 48.9383 26.0449 50.2641 27.9869 50.2641C29.835 50.2641 31.0139 49.5409 31.0139 46.7152V27.5498H36.6523V46.7954Z" fill="#323330"/>
<path d="M49.9911 55.2988C44.7545 55.2988 41.3662 52.8076 39.7188 49.5399L44.3126 46.8879C45.5179 48.8569 47.0982 50.3166 49.8706 50.3166C52.2009 50.3166 53.7007 49.1515 53.7007 47.5311C53.7007 45.6024 52.1741 44.9197 49.5894 43.7811L48.1831 43.1785C44.1117 41.4507 41.4196 39.2676 41.4196 34.6741C41.4196 30.4419 44.6473 27.2275 49.6694 27.2275C53.2588 27.2275 55.8302 28.4731 57.6785 31.741L53.2855 34.5534C52.3213 32.8257 51.2767 32.1429 49.6561 32.1429C48.0087 32.1429 46.9641 33.1877 46.9641 34.5534C46.9641 36.241 48.0087 36.9242 50.4329 37.9819L51.839 38.5847C56.6337 40.6338 59.3256 42.7367 59.3256 47.4509C59.3259 52.5131 55.3347 55.2988 49.9911 55.2988Z" fill="#323330"/>
</g>
<defs>
<filter id="filter0_d_46_14" x="0" y="0" width="68" height="68" filterUnits="userSpaceOnUse" color-interpolation-filters="sRGB">
<feFlood flood-opacity="0" result="BackgroundImageFix"/>
<feColorMatrix in="SourceAlpha" type="matrix" values="0 0 0 0 0 0 0 0 0 0 0 0 0 0 0 0 0 0 127 0" result="hardAlpha"/>
<feOffset dy="4"/>
<feGaussianBlur stdDeviation="2"/>
<feComposite in2="hardAlpha" operator="out"/>
<feColorMatrix type="matrix" values="0 0 0 0 0 0 0 0 0 0 0 0 0 0 0 0 0 0 0.25 0"/>
<feBlend mode="normal" in2="BackgroundImageFix" result="effect1_dropShadow_46_14"/>
<feBlend mode="normal" in="SourceGraphic" in2="effect1_dropShadow_46_14" result="shape"/>
</filter>
</defs>
</svg>
