<svg width="60" height="60" viewBox="0 0 60 60" fill="none" xmlns="http://www.w3.org/2000/svg">
<path d="M30 7.5L22.4875 15.4375L14.9625 23.3625L7.5 31.25V7.5H30Z" fill="#0D91D6"/>
<path d="M30 7.5H29.95L22.4625 15.4125L14.95 23.35L7.5 31.2125V31.25V31.3625V52.5L18.3625 41.6375L26.0875 33.9125L33.825 26.175L41.5625 18.4375L52.5 7.5H30Z" fill="#F88909"/>
<path d="M18.3625 41.6373L7.5 52.4998V31.3623L18.3625 41.6373Z" fill="#C757BC"/>
<path d="M26.0875 33.9123L18.3625 41.6373L7.5 31.3623V31.2498L14.9625 23.3623L26.0875 33.9123Z" fill="#D3638F"/>
<path d="M33.8254 26.175L26.0879 33.9125L14.9629 23.3625L22.4879 15.4375L33.8254 26.175Z" fill="#E07063"/>
<path d="M41.5633 18.4375L33.8258 26.175L22.4883 15.4375L30.0008 7.5L41.5633 18.4375Z" fill="#EC7D36"/>
<path d="M52.5 7.5L41.5625 18.4375L30 7.5H52.5Z" fill="#F88909"/>
<path d="M14.3875 23.9373L9.9875 28.5998L7.5 26.2498V17.4248L14.3875 23.9373Z" fill="#0095D5"/>
<path d="M18.7875 19.2754L14.3875 23.9379L7.5 17.4254V8.58789L18.7875 19.2754Z" fill="#2B88DA"/>
<path d="M23.2 14.625L18.7875 19.275L7.5 8.5875V7.5H15.6625L23.2 14.625Z" fill="#557BDE"/>
<path d="M27.5996 9.9625L23.1996 14.625L15.6621 7.5H29.9996L27.5996 9.9625Z" fill="#806EE3"/>
<path d="M28.75 31.25L7.5 52.5H11.6875H21.9H50L28.75 31.25Z" fill="#0095D5"/>
<path d="M32.0992 52.5004H21.8992L14.6992 45.3129L19.7992 40.2129L32.0992 52.5004Z" fill="#2B88DA"/>
<path d="M42.3258 52.4998H32.1008L19.8008 40.2123L24.9008 35.1123L42.3258 52.4998Z" fill="#557BDE"/>
<path d="M52.5004 52.5H42.3254L24.9004 35.1125L30.0004 30L52.5004 52.5Z" fill="#806EE3"/>
</svg>
