<svg width="127" height="116" viewBox="0 0 127 116" fill="none" xmlns="http://www.w3.org/2000/svg">
<rect width="127" height="116" rx="20" fill="#323330"/>
<path d="M92.1905 22H35.8095C30.9467 22 27 25.7867 27 30.4524V84.5476C27 89.2133 30.9467 93 35.8095 93H92.1905C97.0533 93 101 89.2133 101 84.5476V30.4524C101 25.7867 97.0533 22 92.1905 22ZM44.619 49.0476C47.5383 49.0476 49.9048 51.4141 49.9048 54.3333V75.8809C49.9048 78.8002 47.5383 81.1667 44.619 81.1667V81.1667C41.6998 81.1667 39.3333 78.8002 39.3333 75.8809V54.3333C39.3333 51.4141 41.6998 49.0476 44.619 49.0476V49.0476ZM39.3333 39.6993C39.3333 37.3326 41.4476 35.5238 44.619 35.5238C47.7905 35.5238 49.7814 37.3326 49.9048 39.6993C49.9048 42.066 47.9314 43.9762 44.619 43.9762C41.4476 43.9762 39.3333 42.066 39.3333 39.6993ZM88.6667 75.8809C88.6667 78.8002 86.3002 81.1667 83.3809 81.1667V81.1667C80.4617 81.1667 78.0952 78.8029 78.0952 75.8837C78.0952 71.215 78.0952 65.0292 78.0952 64.2619C78.0952 60.881 76.3333 57.5 71.9286 57.4324H71.7876C67.5238 57.4324 65.7619 60.9148 65.7619 64.2619C65.7619 65.2001 65.7619 71.2816 65.7619 75.8839C65.7619 78.8031 63.3954 81.1667 60.4762 81.1667V81.1667C57.557 81.1667 55.1905 78.8002 55.1905 75.8809V54.3333C55.1905 51.4141 57.557 49.0476 60.4762 49.0476H64.6497C65.264 49.0476 65.7619 49.5456 65.7619 50.1598V50.1598C65.7619 51.216 67.3077 51.8666 68.1931 51.2908C69.8966 50.1831 72.4969 49.0476 75.9986 49.0476C82.9933 49.0476 88.6667 53.6626 88.6667 63.011V75.8809Z" fill="#1565C0"/>
</svg>
