<svg width="65" height="65" viewBox="0 0 65 65" fill="none" xmlns="http://www.w3.org/2000/svg">
<g clip-path="url(#clip0_396_13)">
<path d="M32.2976 0.176758L34.0322 3.43488C34.4222 4.03613 34.8447 4.56832 35.3424 5.06395C36.7947 6.51629 38.174 8.0377 39.413 9.66676C42.3522 13.5261 44.3347 17.8121 45.7505 22.4474C46.5996 25.2789 47.0607 28.1836 47.0952 31.1208C47.2374 39.9019 44.2271 47.4419 38.1577 53.7083C37.1665 54.6996 36.1061 55.6177 34.9686 56.4343C34.3674 56.4343 34.083 55.9732 33.8352 55.5486C33.3741 54.7707 33.0918 53.883 32.9496 52.9994C32.7363 51.9371 32.5961 50.8747 32.6652 49.7779V49.2822C32.6165 49.1766 32.0863 0.426602 32.2976 0.176758Z" fill="#599636"/>
<path d="M32.296 0.0689046C32.2249 -0.0732829 32.1538 0.0343733 32.0827 0.103436C32.1173 0.814373 31.8695 1.44812 31.4815 2.05344C31.0549 2.65469 30.4902 3.11578 29.9235 3.6114C26.7751 6.33734 24.297 9.63 22.3124 13.3127C19.6718 18.2689 18.3109 23.5806 17.9249 29.1727C17.7482 31.1897 18.5627 38.3072 19.1985 40.3608C20.9332 45.8127 24.0491 50.3809 28.0852 54.3459C29.0765 55.3006 30.1368 56.1862 31.2337 57.0373C31.5526 57.0373 31.5871 56.753 31.6602 56.5417C31.8001 56.0897 31.9066 55.628 31.9791 55.1605L32.6901 49.8508L32.296 0.0689046Z" fill="#6CAC48"/>
<path d="M34.0314 58.5912C34.1025 57.7787 34.4925 57.1043 34.917 56.432C34.4905 56.2552 34.1736 55.9038 33.9258 55.5118C33.7125 55.1584 33.5358 54.7338 33.3977 54.3438C32.902 52.857 32.7964 51.297 32.6542 49.7776V48.8574C32.4775 48.9996 32.4409 50.2021 32.4409 50.3809C32.3376 51.9867 32.1245 53.5836 31.8031 55.1604C31.6975 55.7982 31.6264 56.434 31.2344 57.0007C31.2344 57.0718 31.2344 57.1429 31.2689 57.2485C31.9067 59.1254 32.0814 61.0368 32.1891 62.9848V63.6957C32.1891 64.5448 32.1545 64.366 32.8594 64.6504C33.1438 64.756 33.4606 64.7926 33.745 65.0038C33.9583 65.0038 33.9928 64.8271 33.9928 64.6849L33.8872 63.517V60.2588C33.8527 59.6901 33.9583 59.1254 34.0294 58.5932L34.0314 58.5912Z" fill="#C2BFBF"/>
</g>
<defs>
<clipPath id="clip0_396_13">
<rect width="65" height="65" fill="white"/>
</clipPath>
</defs>
</svg>
