<svg width="62" height="61" viewBox="0 0 62 61" fill="none" xmlns="http://www.w3.org/2000/svg">
<path d="M57.0961 47.21C53.7136 47.1176 51.1305 47.4334 48.9221 48.367C48.2946 48.6325 47.2932 48.6399 47.1906 49.4282C47.5356 49.7905 47.5894 50.3322 47.8634 50.778C48.3908 51.633 49.2809 52.7807 50.0753 53.3817C50.9438 54.039 51.8383 54.7413 52.7688 55.3102C54.4238 56.3219 56.2715 56.9002 57.8649 57.9139C58.8043 58.512 59.7373 59.2647 60.6535 59.9388C61.1069 60.2725 61.411 60.7909 62 61V60.9041C61.6905 60.5087 61.6106 59.966 61.3268 59.5533L60.0764 58.2994C58.8541 56.6724 57.3021 55.243 55.6525 54.0563C54.3371 53.1093 51.3932 51.8302 50.8447 50.2956L50.7486 50.1992C51.6811 50.0934 52.7727 49.7554 53.6338 49.5236C55.0798 49.1351 56.3721 49.2354 57.8649 48.8489L59.8842 48.2702V47.8847C59.1296 47.1082 58.5914 46.0802 57.7688 45.3773C55.615 43.5387 53.2651 41.7016 50.8452 40.1695C49.5026 39.3203 47.8442 38.7683 46.4213 38.0481C45.9427 37.8055 45.1019 37.6794 44.786 37.2761C44.0383 36.3212 43.6317 35.1103 43.0556 33.9978C41.8486 31.6664 40.6633 29.1206 39.5938 26.6676C38.8643 24.9951 38.3877 23.3463 37.4779 21.8457C33.1112 14.646 28.4113 10.3011 21.1304 6.02982C19.5808 5.12139 17.7154 4.76306 15.7439 4.29353C14.6868 4.22977 13.6286 4.16502 12.5709 4.10028C11.9248 3.83042 11.2535 3.03814 10.6478 2.65362C8.23577 1.1254 2.04845 -2.19841 0.26234 2.17172C-0.865808 4.93012 1.9484 7.6208 2.95432 9.01903C3.66108 9.99862 4.56547 11.0983 5.07015 12.201C5.40234 12.9261 5.45951 13.6531 5.74389 14.4197C6.44227 16.3087 7.05094 18.3638 7.95534 20.1089C8.41221 20.9927 8.91591 21.9228 9.49403 22.7126C9.8479 23.1975 10.4556 23.411 10.5512 24.1593C9.95781 24.9926 9.9238 26.2865 9.59014 27.3423C8.08693 32.0944 8.65421 38.0017 10.8405 41.5187C11.5108 42.5992 13.0914 44.9147 15.2639 44.0261C17.1644 43.2501 16.74 40.8441 17.2836 38.7218C17.4063 38.2409 17.3309 37.887 17.572 37.5648V37.6611L19.3034 41.1327C20.5848 43.2022 22.8578 45.3645 24.7849 46.8235C25.7839 47.5802 26.5705 48.888 27.8623 49.3308V49.2339H27.7662C27.5158 48.843 27.124 48.6809 26.8046 48.3665C26.052 47.6267 25.2152 46.7069 24.5932 45.8592C22.8406 43.4735 21.292 40.8624 19.881 38.1445C19.2068 36.8461 18.6207 35.4148 18.053 34.0937C17.8341 33.5846 17.8371 32.8141 17.3807 32.5506C16.7582 33.5184 15.842 34.3013 15.361 35.444C14.5916 37.2707 14.4926 39.4988 14.2072 41.8089C14.0387 41.8692 14.1136 41.8277 14.0145 41.9048C12.6749 41.581 12.2047 40.1986 11.7065 39.0119C10.4477 36.0118 10.2136 31.1821 11.3215 27.7288C11.6084 26.8347 12.9036 24.0214 12.3792 23.1955C12.1288 22.3721 11.3028 21.8957 10.841 21.2665C10.2688 20.4885 9.69808 19.4644 9.30133 18.5659C8.27126 16.2276 7.79023 13.6017 6.70545 11.2372C6.18647 10.1069 5.30968 8.96268 4.58962 7.95837C3.79267 6.84483 2.89961 6.02488 2.28157 4.67904C2.06176 4.20061 1.76358 3.43453 2.08887 2.94275C2.19237 2.61111 2.33924 2.47272 2.666 2.36448C3.22391 1.933 4.7774 2.50781 5.35798 2.7495C6.90013 3.39202 8.18747 4.0039 9.49403 4.8718C10.1205 5.28894 10.7553 6.09506 11.5133 6.31846H12.3787C13.7326 6.63033 15.2491 6.41484 16.5143 6.80035C18.7499 7.48142 20.7533 8.54158 22.5725 9.69367C28.1151 13.2038 32.6474 18.1997 35.7475 24.1598C36.2463 25.1196 36.4622 26.035 36.9013 27.0531C37.7874 29.1057 38.9038 31.2176 39.7855 33.2253C40.6657 35.228 41.5233 37.2489 42.7673 38.9155C43.4213 39.7914 45.9467 40.2614 47.095 40.7482C47.8994 41.0888 49.2178 41.4446 49.9802 41.9048C51.4356 42.7855 52.8462 43.8338 54.2119 44.7986C54.8935 45.2805 56.9916 46.3386 57.0961 47.21ZM14.1096 10.4672C13.4044 10.4538 12.9056 10.5443 12.3782 10.6594V10.7558H12.4743C12.811 11.4487 13.4048 11.8955 13.8203 12.4921C14.1407 13.1677 14.4615 13.8424 14.7824 14.517L14.878 14.4216C15.4739 14 15.7464 13.3274 15.743 12.2993C15.5044 12.0478 15.4694 11.7324 15.2624 11.4319C14.9884 11.0311 14.4566 10.8033 14.1096 10.4672Z" fill="#00618A"/>
</svg>
