<svg width="60" height="65" viewBox="0 0 60 65" fill="none" xmlns="http://www.w3.org/2000/svg">
<g filter="url(#filter0_d_46_10)">
<path d="M29.9891 56.9529C29.2724 56.9529 28.545 56.7605 27.914 56.3967L21.3141 52.4925C20.3301 51.9362 20.8114 51.7438 21.1323 51.6367C22.4479 51.1767 22.7153 51.0806 24.1165 50.2782C24.2664 50.1928 24.4589 50.2247 24.6086 50.3211L29.6788 53.3268C29.8607 53.4336 30.1172 53.4336 30.2884 53.3268L50.0453 41.9239C50.2273 41.817 50.3447 41.6031 50.3447 41.3892V18.5838C50.3447 18.3592 50.2273 18.156 50.0348 18.0384L30.2886 6.64629C30.1068 6.5393 29.8608 6.5393 29.679 6.64629L9.94352 18.049C9.75086 18.156 9.63332 18.3698 9.63332 18.5945V41.3892C9.63332 41.6031 9.75086 41.817 9.94352 41.9134L15.3562 45.0368C18.2978 46.5021 20.0948 44.78 20.0948 43.0366V20.5305C20.0948 20.2097 20.3514 19.9637 20.6725 19.9637H23.1755C23.4857 19.9637 23.753 20.2097 23.753 20.5305V43.0473C23.753 46.9622 21.6136 49.2086 17.9021 49.2086C16.7574 49.2086 15.8589 49.2086 13.3559 47.9678L8.17867 44.9834C6.895 44.2452 6.10352 42.8653 6.10352 41.3787V18.5838C6.10352 17.1077 6.895 15.7172 8.17867 14.9791L27.914 3.57633C29.1654 2.87039 30.8235 2.87039 32.0643 3.57633L51.8214 14.9897C53.105 15.7277 53.8965 17.1076 53.8965 18.5945V41.3892C53.8965 42.8653 53.105 44.2452 51.8214 44.994L32.0643 56.3967C31.4331 56.7605 30.7163 56.9529 29.9891 56.9529ZM45.9381 34.4793C45.9381 30.2112 43.0499 29.0774 36.985 28.2752C30.8448 27.4622 30.2246 27.045 30.2246 25.6117C30.2246 24.4245 30.7488 22.8413 35.2948 22.8413C39.349 22.8413 40.8466 23.7184 41.4668 26.4568C41.5204 26.7135 41.7559 26.906 42.023 26.906H44.5906C44.7508 26.906 44.9006 26.8419 45.0077 26.7241C45.1148 26.6066 45.1681 26.4461 45.1571 26.2855C44.7616 21.5685 41.6273 19.3755 35.2948 19.3755C29.6577 19.3755 26.299 21.7502 26.299 25.7401C26.299 30.0615 29.647 31.2598 35.0487 31.7943C41.5204 32.4256 42.023 33.3776 42.023 34.6505C42.023 36.8542 40.2476 37.7952 36.0865 37.7952C30.8559 37.7952 29.7112 36.4795 29.3261 33.8804C29.2833 33.6023 29.0479 33.3991 28.7593 33.3991H26.2026C25.8817 33.3991 25.6359 33.6559 25.6359 33.9659C25.6359 37.2928 27.4436 41.2612 36.0973 41.2612C42.344 41.2505 45.9381 38.7791 45.9381 34.4793Z" fill="#539E43"/>
</g>
<defs>
<filter id="filter0_d_46_10" x="-4" y="0" width="68" height="68" filterUnits="userSpaceOnUse" color-interpolation-filters="sRGB">
<feFlood flood-opacity="0" result="BackgroundImageFix"/>
<feColorMatrix in="SourceAlpha" type="matrix" values="0 0 0 0 0 0 0 0 0 0 0 0 0 0 0 0 0 0 127 0" result="hardAlpha"/>
<feOffset dy="4"/>
<feGaussianBlur stdDeviation="2"/>
<feComposite in2="hardAlpha" operator="out"/>
<feColorMatrix type="matrix" values="0 0 0 0 0 0 0 0 0 0 0 0 0 0 0 0 0 0 0.25 0"/>
<feBlend mode="normal" in2="BackgroundImageFix" result="effect1_dropShadow_46_10"/>
<feBlend mode="normal" in="SourceGraphic" in2="effect1_dropShadow_46_10" result="shape"/>
</filter>
</defs>
</svg>
