<svg width="70" height="75" viewBox="0 0 70 75" fill="none" xmlns="http://www.w3.org/2000/svg">
<g filter="url(#filter0_d_46_10)">
<path d="M34.9877 66.445C34.1515 66.445 33.3029 66.2206 32.5666 65.7962L24.8668 61.2413C23.7188 60.5923 24.2803 60.3678 24.6547 60.2428C26.1895 59.7062 26.5015 59.5941 28.1363 58.658C28.3111 58.5583 28.5358 58.5955 28.7104 58.708L34.6256 62.2146C34.8378 62.3392 35.1371 62.3392 35.3368 62.2146L58.3865 48.9113C58.5988 48.7865 58.7358 48.5369 58.7358 48.2874V21.6811C58.7358 21.419 58.5989 21.182 58.3742 21.0448L35.337 7.754C35.1249 7.62918 34.838 7.62918 34.6258 7.754L11.6011 21.0572C11.3763 21.182 11.2392 21.4315 11.2392 21.6936V48.2874C11.2392 48.5369 11.3763 48.7864 11.6011 48.899L17.9159 52.5429C21.3478 54.2525 23.4442 52.2434 23.4442 50.2094V23.9523C23.4442 23.578 23.7436 23.291 24.1182 23.291H27.0384C27.4003 23.291 27.7122 23.578 27.7122 23.9523V50.2219C27.7122 54.7892 25.2162 57.41 20.8861 57.41C19.5506 57.41 18.5024 57.41 15.5822 55.9624L9.54211 52.4806C8.04449 51.6194 7.12109 50.0095 7.12109 48.2751V21.6811C7.12109 19.959 8.04449 18.3367 9.54211 17.4757L32.5666 4.17238C34.0267 3.34879 35.9611 3.34879 37.4087 4.17238L60.4586 17.488C61.9561 18.349 62.8795 19.9589 62.8795 21.6936V48.2874C62.8795 50.0095 61.9561 51.6194 60.4586 52.493L37.4087 65.7962C36.6723 66.2206 35.836 66.445 34.9877 66.445ZM53.5948 40.2258C53.5948 35.2464 50.2252 33.9236 43.1495 32.9878C35.986 32.0392 35.2623 31.5525 35.2623 29.8803C35.2623 28.4952 35.8739 26.6481 41.1776 26.6481C45.9075 26.6481 47.6547 27.6715 48.3783 30.8663C48.4408 31.1657 48.7156 31.3904 49.0272 31.3904H52.0227C52.2096 31.3904 52.3843 31.3156 52.5093 31.1782C52.6342 31.041 52.6964 30.8537 52.6836 30.6664C52.2222 25.1632 48.5655 22.6048 41.1776 22.6048C34.601 22.6048 30.6825 25.3753 30.6825 30.0301C30.6825 35.0718 34.5884 36.4697 40.8905 37.0933C48.4408 37.8298 49.0272 38.9405 49.0272 40.4255C49.0272 42.9965 46.9559 44.0944 42.1013 44.0944C35.9988 44.0944 34.6634 42.5595 34.2141 39.5272C34.1642 39.2027 33.8895 38.9657 33.5528 38.9657H30.57C30.1957 38.9657 29.9088 39.2652 29.9088 39.6268C29.9088 43.5083 32.0179 48.1381 42.1139 48.1381C49.4016 48.1255 53.5948 45.2423 53.5948 40.2258Z" fill="#539E43"/>
</g>
<defs>
<filter id="filter0_d_46_10" x="-4" y="0" width="78" height="78" filterUnits="userSpaceOnUse" color-interpolation-filters="sRGB">
<feFlood flood-opacity="0" result="BackgroundImageFix"/>
<feColorMatrix in="SourceAlpha" type="matrix" values="0 0 0 0 0 0 0 0 0 0 0 0 0 0 0 0 0 0 127 0" result="hardAlpha"/>
<feOffset dy="4"/>
<feGaussianBlur stdDeviation="2"/>
<feComposite in2="hardAlpha" operator="out"/>
<feColorMatrix type="matrix" values="0 0 0 0 0 0 0 0 0 0 0 0 0 0 0 0 0 0 0.25 0"/>
<feBlend mode="normal" in2="BackgroundImageFix" result="effect1_dropShadow_46_10"/>
<feBlend mode="normal" in="SourceGraphic" in2="effect1_dropShadow_46_10" result="shape"/>
</filter>
</defs>
</svg>
