<svg width="32" height="37" viewBox="0 0 32 37" fill="none" xmlns="http://www.w3.org/2000/svg">
<g filter="url(#filter0_d_171_31)">
<path d="M15.9955 28.4764C15.6372 28.4764 15.2735 28.3802 14.958 28.1984L11.658 26.2463C11.166 25.9681 11.4067 25.8719 11.5671 25.8183C12.2249 25.5884 12.3586 25.5403 13.0592 25.1391C13.1342 25.0964 13.2305 25.1123 13.3053 25.1606L15.8404 26.6634C15.9313 26.7168 16.0596 26.7168 16.1452 26.6634L26.0236 20.962C26.1146 20.9085 26.1733 20.8015 26.1733 20.6946V9.29191C26.1733 9.17959 26.1146 9.07799 26.0184 9.01922L16.1453 3.32314C16.0544 3.26965 15.9314 3.26965 15.8405 3.32314L5.97273 9.02449C5.87641 9.07799 5.81764 9.18492 5.81764 9.29725V20.6946C5.81764 20.8015 5.87641 20.9085 5.97273 20.9567L8.67906 22.5184C10.1499 23.2511 11.0484 22.39 11.0484 21.5183V10.2653C11.0484 10.1048 11.1767 9.98186 11.3372 9.98186H12.5887C12.7438 9.98186 12.8775 10.1048 12.8775 10.2653V21.5237C12.8775 23.4811 11.8078 24.6043 9.95201 24.6043C9.37967 24.6043 8.93043 24.6043 7.67893 23.9839L5.09031 22.4917C4.44848 22.1226 4.05273 21.4327 4.05273 20.6893V9.29191C4.05273 8.55387 4.44848 7.85859 5.09031 7.48957L14.958 1.78816C15.5837 1.4352 16.4127 1.4352 17.0331 1.78816L26.9117 7.49484C27.5535 7.86387 27.9492 8.55381 27.9492 9.29725V20.6946C27.9492 21.4327 27.5535 22.1226 26.9117 22.497L17.0331 28.1984C16.7175 28.3802 16.3591 28.4764 15.9955 28.4764ZM23.97 17.2396C23.97 15.1056 22.5259 14.5387 19.4935 14.1376C16.4234 13.7311 16.1133 13.5225 16.1133 12.8058C16.1133 12.2122 16.3754 11.4206 18.6484 11.4206C20.6755 11.4206 21.4243 11.8592 21.7344 13.2284C21.7612 13.3567 21.8789 13.453 22.0125 13.453H23.2963C23.3764 13.453 23.4513 13.421 23.5048 13.3621C23.5584 13.3033 23.585 13.223 23.5795 13.1428C23.3818 10.7842 21.8146 9.68777 18.6484 9.68777C15.8298 9.68777 14.1505 10.8751 14.1505 12.8701C14.1505 15.0308 15.8245 15.6299 18.5253 15.8971C21.7612 16.2128 22.0125 16.6888 22.0125 17.3252C22.0125 18.4271 21.1248 18.8976 19.0442 18.8976C16.4289 18.8976 15.8566 18.2398 15.664 16.9402C15.6426 16.8012 15.5249 16.6996 15.3806 16.6996H14.1023C13.9418 16.6996 13.8189 16.8279 13.8189 16.9829C13.8189 18.6464 14.7228 20.6306 19.0496 20.6306C22.173 20.6252 23.97 19.3896 23.97 17.2396Z" fill="#539E43"/>
</g>
<defs>
<filter id="filter0_d_171_31" x="-3" y="0" width="38" height="38" filterUnits="userSpaceOnUse" color-interpolation-filters="sRGB">
<feFlood flood-opacity="0" result="BackgroundImageFix"/>
<feColorMatrix in="SourceAlpha" type="matrix" values="0 0 0 0 0 0 0 0 0 0 0 0 0 0 0 0 0 0 127 0" result="hardAlpha"/>
<feOffset dy="4"/>
<feGaussianBlur stdDeviation="2"/>
<feComposite in2="hardAlpha" operator="out"/>
<feColorMatrix type="matrix" values="0 0 0 0 0 0 0 0 0 0 0 0 0 0 0 0 0 0 0.25 0"/>
<feBlend mode="normal" in2="BackgroundImageFix" result="effect1_dropShadow_171_31"/>
<feBlend mode="normal" in="SourceGraphic" in2="effect1_dropShadow_171_31" result="shape"/>
</filter>
</defs>
</svg>
