<svg width="66" height="64" viewBox="0 0 66 64" fill="none" xmlns="http://www.w3.org/2000/svg">
<g filter="url(#filter0_d_46_2)">
<path d="M32.9497 34.9799C35.7222 34.9799 37.9697 32.7324 37.9697 29.9599C37.9697 27.1875 35.7222 24.9399 32.9497 24.9399C30.1772 24.9399 27.9297 27.1875 27.9297 29.9599C27.9297 32.7324 30.1772 34.9799 32.9497 34.9799Z" fill="#00D8FF"/>
<path d="M32.9496 41.4601C25.8996 41.4601 19.7396 40.6301 15.1296 39.0501C12.1396 38.0301 9.59961 36.6701 7.78961 35.1201C5.86961 33.4801 4.84961 31.6901 4.84961 29.9601C4.84961 26.6401 8.48961 23.3901 14.5996 21.2701C19.5996 19.5301 26.1196 18.5601 32.9396 18.5601C39.6396 18.5601 46.0696 19.5001 51.0396 21.2201C53.9496 22.2201 56.3996 23.5201 58.1396 24.9601C60.0296 26.5401 61.0296 28.2701 61.0296 29.9601C61.0296 33.4101 56.9596 36.9001 50.3996 39.0701C45.7596 40.6101 39.5596 41.4601 32.9496 41.4601ZM32.9496 20.9601C26.4796 20.9601 20.0796 21.9001 15.3996 23.5301C9.77961 25.4901 7.25961 28.1701 7.25961 29.9601C7.25961 31.8201 9.96961 34.7501 15.9096 36.7801C20.2696 38.2701 26.1696 39.0601 32.9496 39.0601C39.3096 39.0601 45.2396 38.2601 49.6496 36.7901C55.8196 34.7401 58.6396 31.8101 58.6396 29.9601C58.6396 29.0101 57.9196 27.8901 56.6096 26.8001C55.0996 25.5401 52.8996 24.3901 50.2696 23.4801C45.5396 21.8601 39.3896 20.9601 32.9496 20.9601Z" fill="#00D8FF"/>
<path d="M21.5599 54.9802C20.5399 54.9802 19.6399 54.7602 18.8799 54.3202C16.0099 52.6602 15.0099 47.8802 16.2199 41.5302C17.2099 36.3202 19.6299 30.2002 23.0399 24.2902C26.3899 18.4902 30.4099 13.3902 34.3799 9.94024C36.6999 7.92024 39.0499 6.44024 41.1699 5.66024C43.4799 4.81024 45.4799 4.81024 46.9399 5.65024C49.9299 7.37024 50.9199 12.6502 49.5199 19.4102C48.5299 24.2102 46.1699 30.0002 42.8699 35.7302C39.3499 41.8302 35.5499 46.7502 31.8799 49.9602C29.4999 52.0402 27.0499 53.5602 24.8099 54.3502C23.6399 54.7702 22.5399 54.9802 21.5599 54.9802ZM24.0699 24.8902L25.1099 25.4902C21.8799 31.0902 19.4899 37.1002 18.5699 41.9802C17.4599 47.8302 18.5299 51.3502 20.0699 52.2402C20.4499 52.4602 20.9499 52.5802 21.5599 52.5802C23.5499 52.5802 26.6799 51.3202 30.2999 48.1602C33.7699 45.1302 37.3999 40.4102 40.7899 34.5402C43.9699 29.0302 46.2299 23.4902 47.1699 18.9402C48.4799 12.5702 47.3499 8.67024 45.7399 7.74024C44.9199 7.27024 43.5899 7.33024 41.9899 7.92024C40.1399 8.60024 38.0499 9.93024 35.9499 11.7602C32.1799 15.0402 28.3299 19.9202 25.1099 25.5002L24.0699 24.8902Z" fill="#00D8FF"/>
<path d="M44.3401 55.0102C41.6201 55.0102 38.1701 53.3702 34.5701 50.2702C30.5501 46.8102 26.4601 41.6602 23.0401 35.7502C19.6801 29.9502 17.2801 23.9202 16.2701 18.7502C15.6801 15.7302 15.5701 12.9602 15.9501 10.7302C16.3701 8.30022 17.3601 6.57022 18.8301 5.72022C21.8101 3.99022 26.8801 5.77022 32.0401 10.3602C35.7001 13.6102 39.5401 18.5502 42.8501 24.2702C46.3801 30.3702 48.7501 36.1202 49.6901 40.9002C50.3001 44.0002 50.4001 46.8802 49.9701 49.2202C49.5101 51.7102 48.4701 53.4802 46.9701 54.3502C46.2201 54.7902 45.3301 55.0102 44.3401 55.0102ZM25.1201 34.5502C28.3601 40.1502 32.3801 45.2202 36.1401 48.4502C40.6501 52.3302 44.2301 53.1702 45.7801 52.2702C47.3901 51.3402 48.5701 47.5302 47.3501 41.3702C46.4501 36.8502 44.1801 31.3502 40.7801 25.4802C37.5901 19.9702 33.9201 15.2402 30.4501 12.1602C25.5901 7.84022 21.6501 6.87022 20.0401 7.80022C19.2201 8.27022 18.6101 9.46022 18.3201 11.1402C17.9901 13.0802 18.0901 15.5602 18.6301 18.2902C19.5901 23.2002 21.8901 28.9702 25.1201 34.5502Z" fill="#00D8FF"/>
</g>
<defs>
<filter id="filter0_d_46_2" x="-1" y="0" width="68" height="68" filterUnits="userSpaceOnUse" color-interpolation-filters="sRGB">
<feFlood flood-opacity="0" result="BackgroundImageFix"/>
<feColorMatrix in="SourceAlpha" type="matrix" values="0 0 0 0 0 0 0 0 0 0 0 0 0 0 0 0 0 0 127 0" result="hardAlpha"/>
<feOffset dy="4"/>
<feGaussianBlur stdDeviation="2"/>
<feComposite in2="hardAlpha" operator="out"/>
<feColorMatrix type="matrix" values="0 0 0 0 0 0 0 0 0 0 0 0 0 0 0 0 0 0 0.25 0"/>
<feBlend mode="normal" in2="BackgroundImageFix" result="effect1_dropShadow_46_2"/>
<feBlend mode="normal" in="SourceGraphic" in2="effect1_dropShadow_46_2" result="shape"/>
</filter>
</defs>
</svg>
