<svg width="74" height="73" viewBox="0 0 74 73" fill="none" xmlns="http://www.w3.org/2000/svg">
<g filter="url(#filter0_d_46_2)">
<path d="M36.9416 40.81C40.1762 40.81 42.7983 38.1879 42.7983 34.9533C42.7983 31.7188 40.1762 29.0967 36.9416 29.0967C33.7071 29.0967 31.085 31.7188 31.085 34.9533C31.085 38.1879 33.7071 40.81 36.9416 40.81Z" fill="#00D8FF"/>
<path d="M36.9415 48.37C28.7165 48.37 21.5299 47.4017 16.1515 45.5583C12.6632 44.3683 9.69987 42.7817 7.5882 40.9733C5.3482 39.06 4.1582 36.9717 4.1582 34.9533C4.1582 31.08 8.40487 27.2883 15.5332 24.815C21.3665 22.785 28.9732 21.6533 36.9299 21.6533C44.7465 21.6533 52.2482 22.75 58.0465 24.7567C61.4415 25.9233 64.2999 27.44 66.3299 29.12C68.5349 30.9633 69.7015 32.9817 69.7015 34.9533C69.7015 38.9783 64.9532 43.05 57.2999 45.5817C51.8865 47.3783 44.6532 48.37 36.9415 48.37ZM36.9415 24.4533C29.3932 24.4533 21.9265 25.55 16.4665 27.4517C9.90987 29.7383 6.96987 32.865 6.96987 34.9533C6.96987 37.1233 10.1315 40.5417 17.0615 42.91C22.1482 44.6483 29.0315 45.57 36.9415 45.57C44.3615 45.57 51.2799 44.6367 56.4249 42.9217C63.6232 40.53 66.9132 37.1117 66.9132 34.9533C66.9132 33.845 66.0732 32.5383 64.5449 31.2667C62.7832 29.7967 60.2165 28.455 57.1482 27.3933C51.6299 25.5033 44.4549 24.4533 36.9415 24.4533Z" fill="#00D8FF"/>
<path d="M23.653 64.1431C22.463 64.1431 21.413 63.8865 20.5264 63.3731C17.178 61.4365 16.0114 55.8598 17.423 48.4515C18.578 42.3731 21.4014 35.2331 25.3797 28.3381C29.288 21.5715 33.978 15.6215 38.6097 11.5965C41.3164 9.23979 44.058 7.51312 46.5314 6.60312C49.2264 5.61146 51.5597 5.61146 53.263 6.59146C56.7514 8.59812 57.9064 14.7581 56.273 22.6448C55.118 28.2448 52.3647 34.9998 48.5147 41.6848C44.408 48.8015 39.9747 54.5415 35.693 58.2865C32.9164 60.7131 30.058 62.4865 27.4447 63.4081C26.0797 63.8981 24.7964 64.1431 23.653 64.1431ZM26.5814 29.0381L27.7947 29.7381C24.0264 36.2715 21.238 43.2831 20.1647 48.9765C18.8697 55.8015 20.118 59.9081 21.9147 60.9465C22.358 61.2031 22.9414 61.3431 23.653 61.3431C25.9747 61.3431 29.6264 59.8731 33.8497 56.1865C37.898 52.6515 42.133 47.1448 46.088 40.2965C49.798 33.8681 52.4347 27.4048 53.5314 22.0965C55.0597 14.6648 53.7414 10.1148 51.863 9.02979C50.9064 8.48146 49.3547 8.55146 47.488 9.23979C45.3297 10.0331 42.8914 11.5848 40.4414 13.7198C36.043 17.5465 31.5514 23.2398 27.7947 29.7498L26.5814 29.0381Z" fill="#00D8FF"/>
<path d="M50.2298 64.1783C47.0565 64.1783 43.0315 62.265 38.8315 58.6483C34.1415 54.6117 29.3698 48.6033 25.3798 41.7083C21.4598 34.9417 18.6598 27.9067 17.4815 21.875C16.7932 18.3517 16.6648 15.12 17.1082 12.5183C17.5982 9.68334 18.7532 7.66501 20.4682 6.67334C23.9448 4.65501 29.8598 6.73167 35.8798 12.0867C40.1498 15.8783 44.6298 21.6417 48.4915 28.315C52.6098 35.4317 55.3748 42.14 56.4715 47.7167C57.1831 51.3333 57.2998 54.6933 56.7981 57.4233C56.2615 60.3283 55.0481 62.3933 53.2981 63.4083C52.4231 63.9217 51.3848 64.1783 50.2298 64.1783ZM27.8065 40.3083C31.5865 46.8417 36.2765 52.7567 40.6631 56.525C45.9248 61.0517 50.1015 62.0317 51.9098 60.9817C53.7881 59.8967 55.1648 55.4517 53.7415 48.265C52.6915 42.9917 50.0431 36.575 46.0765 29.7267C42.3548 23.2983 38.0731 17.78 34.0248 14.1867C28.3548 9.14667 23.7581 8.01501 21.8798 9.10001C20.9231 9.64834 20.2115 11.0367 19.8732 12.9967C19.4882 15.26 19.6048 18.1533 20.2348 21.3383C21.3548 27.0667 24.0381 33.7983 27.8065 40.3083Z" fill="#00D8FF"/>
</g>
<defs>
<filter id="filter0_d_46_2" x="-2" y="0" width="78" height="78" filterUnits="userSpaceOnUse" color-interpolation-filters="sRGB">
<feFlood flood-opacity="0" result="BackgroundImageFix"/>
<feColorMatrix in="SourceAlpha" type="matrix" values="0 0 0 0 0 0 0 0 0 0 0 0 0 0 0 0 0 0 127 0" result="hardAlpha"/>
<feOffset dy="4"/>
<feGaussianBlur stdDeviation="2"/>
<feComposite in2="hardAlpha" operator="out"/>
<feColorMatrix type="matrix" values="0 0 0 0 0 0 0 0 0 0 0 0 0 0 0 0 0 0 0.25 0"/>
<feBlend mode="normal" in2="BackgroundImageFix" result="effect1_dropShadow_46_2"/>
<feBlend mode="normal" in="SourceGraphic" in2="effect1_dropShadow_46_2" result="shape"/>
</filter>
</defs>
</svg>
