<svg width="38" height="36" viewBox="0 0 38 36" fill="none" xmlns="http://www.w3.org/2000/svg">
<g filter="url(#filter0_d_171_23)">
<path d="M18.9748 17.49C20.3611 17.49 21.4848 16.3662 21.4848 14.98C21.4848 13.5937 20.3611 12.47 18.9748 12.47C17.5886 12.47 16.4648 13.5937 16.4648 14.98C16.4648 16.3662 17.5886 17.49 18.9748 17.49Z" fill="#00D8FF"/>
<path d="M18.9758 20.73C15.4508 20.73 12.3708 20.315 10.0658 19.525C8.57078 19.015 7.30078 18.335 6.39578 17.56C5.43578 16.74 4.92578 15.845 4.92578 14.98C4.92578 13.32 6.74578 11.695 9.80078 10.635C12.3008 9.76503 15.5608 9.28003 18.9708 9.28003C22.3208 9.28003 25.5358 9.75003 28.0208 10.61C29.4758 11.11 30.7008 11.76 31.5708 12.48C32.5158 13.27 33.0158 14.135 33.0158 14.98C33.0158 16.705 30.9808 18.45 27.7008 19.535C25.3808 20.305 22.2808 20.73 18.9758 20.73ZM18.9758 10.48C15.7408 10.48 12.5408 10.95 10.2008 11.765C7.39078 12.745 6.13078 14.085 6.13078 14.98C6.13078 15.91 7.48578 17.375 10.4558 18.39C12.6358 19.135 15.5858 19.53 18.9758 19.53C22.1558 19.53 25.1208 19.13 27.3258 18.395C30.4108 17.37 31.8208 15.905 31.8208 14.98C31.8208 14.505 31.4608 13.945 30.8058 13.4C30.0508 12.77 28.9508 12.195 27.6358 11.74C25.2708 10.93 22.1958 10.48 18.9758 10.48Z" fill="#00D8FF"/>
<path d="M13.2795 27.49C12.7695 27.49 12.3195 27.38 11.9395 27.16C10.5045 26.33 10.0045 23.94 10.6095 20.765C11.1045 18.16 12.3145 15.1 14.0195 12.145C15.6945 9.245 17.7045 6.695 19.6895 4.97C20.8495 3.96 22.0245 3.22 23.0845 2.83C24.2395 2.405 25.2395 2.405 25.9695 2.825C27.4645 3.685 27.9595 6.325 27.2595 9.705C26.7645 12.105 25.5845 15 23.9345 17.865C22.1745 20.915 20.2745 23.375 18.4395 24.98C17.2495 26.02 16.0245 26.78 14.9045 27.175C14.3195 27.385 13.7695 27.49 13.2795 27.49ZM14.5345 12.445L15.0545 12.745C13.4395 15.545 12.2445 18.55 11.7845 20.99C11.2295 23.915 11.7645 25.675 12.5345 26.12C12.7245 26.23 12.9745 26.29 13.2795 26.29C14.2745 26.29 15.8395 25.66 17.6495 24.08C19.3845 22.565 21.1995 20.205 22.8945 17.27C24.4845 14.515 25.6145 11.745 26.0845 9.47C26.7395 6.285 26.1745 4.335 25.3695 3.87C24.9595 3.635 24.2945 3.665 23.4945 3.96C22.5695 4.3 21.5245 4.965 20.4745 5.88C18.5895 7.52 16.6645 9.96 15.0545 12.75L14.5345 12.445Z" fill="#00D8FF"/>
<path d="M24.6691 27.505C23.3091 27.505 21.5841 26.685 19.7841 25.135C17.7741 23.405 15.7291 20.83 14.0191 17.875C12.3391 14.975 11.1391 11.96 10.6341 9.37499C10.3391 7.86499 10.2841 6.47999 10.4741 5.36499C10.6841 4.14999 11.1791 3.28499 11.9141 2.85999C13.4041 1.99499 15.9391 2.88499 18.5191 5.17999C20.3491 6.80499 22.2691 9.27498 23.9241 12.135C25.6891 15.185 26.8741 18.06 27.3441 20.45C27.6491 22 27.6991 23.44 27.4841 24.61C27.2541 25.855 26.7341 26.74 25.9841 27.175C25.6091 27.395 25.1641 27.505 24.6691 27.505ZM15.0591 17.275C16.6791 20.075 18.6891 22.61 20.5691 24.225C22.8241 26.165 24.6141 26.585 25.3891 26.135C26.1941 25.67 26.7841 23.765 26.1741 20.685C25.7241 18.425 24.5891 15.675 22.8891 12.74C21.2941 9.98499 19.4591 7.61999 17.7241 6.07999C15.2941 3.91999 13.3241 3.43499 12.5191 3.89999C12.1091 4.13499 11.8041 4.72999 11.6591 5.56999C11.4941 6.53999 11.5441 7.77998 11.8141 9.14498C12.2941 11.6 13.4441 14.485 15.0591 17.275Z" fill="#00D8FF"/>
</g>
<defs>
<filter id="filter0_d_171_23" x="0" y="0" width="38" height="38" filterUnits="userSpaceOnUse" color-interpolation-filters="sRGB">
<feFlood flood-opacity="0" result="BackgroundImageFix"/>
<feColorMatrix in="SourceAlpha" type="matrix" values="0 0 0 0 0 0 0 0 0 0 0 0 0 0 0 0 0 0 127 0" result="hardAlpha"/>
<feOffset dy="4"/>
<feGaussianBlur stdDeviation="2"/>
<feComposite in2="hardAlpha" operator="out"/>
<feColorMatrix type="matrix" values="0 0 0 0 0 0 0 0 0 0 0 0 0 0 0 0 0 0 0.25 0"/>
<feBlend mode="normal" in2="BackgroundImageFix" result="effect1_dropShadow_171_23"/>
<feBlend mode="normal" in="SourceGraphic" in2="effect1_dropShadow_171_23" result="shape"/>
</filter>
</defs>
</svg>
