<svg width="127" height="116" viewBox="0 0 127 116" fill="none" xmlns="http://www.w3.org/2000/svg">
<rect width="127" height="116" rx="20" fill="#323330"/>
<path d="M64.0001 22C43.5987 22 27.0002 37.9256 27.0002 57.5C27.0002 63.6122 28.6459 69.6225 31.7668 74.9259L27.0598 91.0398C26.9053 91.5692 27.0549 92.1372 27.4539 92.5308C27.7611 92.8348 28.1794 93 28.6089 93C28.7376 93 28.8679 92.9846 28.995 92.9552L46.5233 88.7894C51.8754 91.546 57.9032 93 64.0001 93C84.4015 93 101 77.0744 101 57.5C101 37.9256 84.4015 22 64.0001 22ZM82.6127 70.0269C81.8212 72.1291 78.0247 74.0476 76.2004 74.3054C74.5628 74.5354 72.4908 74.6342 70.2161 73.9488C68.8375 73.5321 67.0679 72.9795 64.8012 72.0519C55.273 68.1531 49.0506 59.0635 48.5744 58.4631C48.0998 57.8627 44.6958 53.5842 44.6958 49.156C44.6958 44.7277 47.1491 42.5499 48.021 41.6485C48.8929 40.7471 49.9209 40.5217 50.5547 40.5217C51.1885 40.5217 51.8207 40.5295 52.3757 40.5542C52.9597 40.5819 53.7431 40.3427 54.5137 42.0992C55.3051 43.902 57.205 48.3302 57.4399 48.7824C57.678 49.2331 57.8356 49.7595 57.5203 50.3599C57.205 50.9603 57.0474 51.3353 56.5712 51.8617C56.095 52.388 55.5738 53.0347 55.1459 53.4391C54.6697 53.8883 54.1758 54.3745 54.7292 55.2758C55.2826 56.1772 57.1889 59.1237 60.0138 61.51C63.6414 64.5753 66.7027 65.5261 67.6518 65.9768C68.601 66.4275 69.156 66.3518 69.7094 65.7514C70.2628 65.1495 72.0838 63.1229 72.716 62.223C73.3482 61.3232 73.982 61.4714 74.854 61.7723C75.7259 62.0718 80.3959 64.2481 81.345 64.6988C82.2942 65.1495 82.928 65.3748 83.1661 65.7499C83.4041 66.1234 83.4041 67.9262 82.6127 70.0269Z" fill="#38C221" fill-opacity="0.83"/>
</svg>
