<svg width="97" height="89" viewBox="0 0 97 89" fill="none" xmlns="http://www.w3.org/2000/svg">
<path d="M0 20C0 8.95431 8.95431 0 20 0H77C88.0457 0 97 8.9543 97 20V68.5984C97 79.6441 88.0457 88.5984 77 88.5984H20C8.95431 88.5984 0 79.6441 0 68.5984V20Z" fill="#323330"/>
<path d="M22.1504 27.2672V25.7783C22.1504 24.8162 22.5024 23.8934 23.1291 23.213C23.7558 22.5326 24.6057 22.1504 25.4919 22.1504H72.2734C73.1597 22.1504 74.0096 22.5326 74.6362 23.213C75.2629 23.8934 75.615 24.8162 75.615 25.7783V27.2672L48.8827 45.4069L22.1504 27.2672ZM49.7682 49.0848C49.5026 49.2648 49.1958 49.3602 48.8827 49.3602C48.5696 49.3602 48.2628 49.2648 47.9972 49.0848L22.1504 31.5454V62.0579C22.1504 63.0201 22.5024 63.9428 23.1291 64.6232C23.7558 65.3036 24.6057 65.6858 25.4919 65.6858H72.2734C73.1597 65.6858 74.0096 65.3036 74.6362 64.6232C75.2629 63.9428 75.615 63.0201 75.615 62.0579V31.5454L49.7682 49.0848Z" fill="white"/>
</svg>
