<svg width="99" height="90" viewBox="0 0 99 90" fill="none" xmlns="http://www.w3.org/2000/svg">
<path d="M98.5352 20C98.5352 8.9543 89.5809 0 78.5352 0H20.0007C8.95499 0 0.000669837 8.95431 0.000669837 20V70C0.000669837 81.0457 8.95497 90 20.0007 90H78.5351C89.5808 90 98.5352 81.0457 98.5352 70V20Z" fill="#1F252C"/>
<path d="M58.6522 72.1546C57.7648 71.7786 57.1432 70.91 57.1432 69.8988V63.2643C57.1432 63.0223 57.1232 62.7704 57.092 62.5149C57.1095 62.5198 57.1257 62.5235 57.1432 62.5271C57.1432 62.5271 60.8876 62.5271 61.6364 62.5271C63.5086 62.5271 65.1312 61.79 65.8801 60.3156C66.7538 58.7184 67.1282 56.0155 69.3748 54.5411C69.7493 54.2954 69.4996 53.9268 68.7508 53.9268C68.0019 54.0497 66.3793 55.0326 65.3808 56.3841C64.2575 57.7355 63.1342 58.8413 61.1372 58.8413C58.0331 58.8413 56.3693 58.6877 55.3684 58.1594C54.2026 56.4529 52.5888 55.1554 50.9026 55.1554V55.1247C57.9769 54.9011 62.4964 52.5864 64.6007 49.0124C69.1751 49.064 73.1579 49.51 75.4307 49.881C75.5031 49.4792 75.5655 49.075 75.6192 48.6684C73.3763 48.3047 69.5745 47.8734 65.2036 47.7911C65.3434 47.452 65.4644 47.1043 65.5668 46.748C69.949 46.5293 73.7308 46.7001 75.7852 46.8672C75.8102 46.4593 75.8439 46.0526 75.8489 45.6398C73.7907 45.474 70.1112 45.3081 65.8414 45.5034C65.94 44.8891 66.0036 44.2613 66.0036 43.6077C66.0036 41.519 65.2548 39.3075 63.8818 37.4646C64.5059 35.376 65.3796 30.9529 63.6322 29.3557C60.2623 29.3557 57.8908 30.9529 56.7675 31.9358C54.6469 31.0746 52.2755 30.5831 49.6544 30.5831C47.0334 30.5831 44.6619 31.0746 42.6649 31.9346C41.5416 30.9517 39.1702 29.3545 35.8002 29.3545C33.928 31.0746 34.9265 35.4976 35.5506 37.4634C34.1777 39.3063 33.4288 41.3949 33.5536 43.6065C33.5536 44.2011 33.6098 44.7749 33.6909 45.3376C29.3237 45.1263 25.5444 45.2958 23.4513 45.4629C23.4538 45.8769 23.4925 46.2812 23.5149 46.6903C25.6005 46.5207 29.4747 46.3463 33.948 46.5809C34.0591 46.9937 34.1939 47.3955 34.3537 47.785C29.9278 47.8415 26.0349 48.2629 23.6847 48.6315C23.7383 49.0394 23.8008 49.4436 23.8731 49.8441C26.2596 49.4682 30.3272 49.0283 34.9553 49.0062C37.0334 52.5422 41.4705 54.8483 48.4063 55.1174V55.1554C45.1612 55.1554 42.1657 59.947 42.1657 63.2643V69.8988C42.1657 70.91 41.5441 71.7786 40.6567 72.1546C29.2226 68.4294 20.9475 57.8142 20.9475 45.3265C20.9475 29.7452 33.8245 17.0684 49.6544 17.0684C65.4844 17.0684 78.3613 29.7452 78.3613 45.3265C78.3613 57.8142 70.0863 68.4294 58.6522 72.1546Z" fill="white"/>
</svg>
