<svg width="99" height="90" viewBox="0 0 99 90" fill="none" xmlns="http://www.w3.org/2000/svg">
<rect x="0.388672" width="98.5345" height="90" rx="20" fill="#323330"/>
<path d="M71.9167 17.0703H28.1729C24.4 17.0703 21.3379 20.0082 21.3379 23.6282V65.5986C21.3379 69.2186 24.4 72.1565 28.1729 72.1565H71.9167C75.6896 72.1565 78.7517 69.2186 78.7517 65.5986V23.6282C78.7517 20.0082 75.6896 17.0703 71.9167 17.0703ZM35.0078 38.0555C37.2728 38.0555 39.1088 39.8916 39.1088 42.1565V58.8745C39.1088 61.1394 37.2728 62.9755 35.0078 62.9755V62.9755C32.7429 62.9755 30.9069 61.1394 30.9069 58.8745V42.1565C30.9069 39.8916 32.7429 38.0555 35.0078 38.0555V38.0555ZM30.9069 30.8025C30.9069 28.9663 32.5473 27.5629 35.0078 27.5629C37.4684 27.5629 39.0131 28.9663 39.1088 30.8025C39.1088 32.6387 37.5778 34.1208 35.0078 34.1208C32.5473 34.1208 30.9069 32.6387 30.9069 30.8025ZM69.1827 58.8745C69.1827 61.1394 67.3466 62.9755 65.0817 62.9755V62.9755C62.8168 62.9755 60.9807 61.1415 60.9807 58.8766C60.9807 55.2544 60.9807 50.455 60.9807 49.8597C60.9807 47.2366 59.6138 44.6134 56.1963 44.561H56.0869C52.7788 44.561 51.4118 47.2628 51.4118 49.8597C51.4118 50.5876 51.4118 55.306 51.4118 58.8768C51.4118 61.1417 49.5757 62.9755 47.3108 62.9755V62.9755C45.0459 62.9755 43.2098 61.1394 43.2098 58.8745V42.1565C43.2098 39.8916 45.0459 38.0555 47.3108 38.0555H50.5489C51.0255 38.0555 51.4118 38.4419 51.4118 38.9184V38.9184C51.4118 39.7379 52.6111 40.2426 53.2981 39.7959C54.6198 38.9365 56.6372 38.0555 59.354 38.0555C64.781 38.0555 69.1827 41.6361 69.1827 48.8892V58.8745Z" fill="#1565C0"/>
</svg>
