<svg width="99" height="90" viewBox="0 0 99 90" fill="none" xmlns="http://www.w3.org/2000/svg">
<rect width="98.1983" height="89.6929" rx="20" fill="#1F252C"/>
<path d="M49.486 17.0098C33.7113 17.0098 20.8771 29.3237 20.8771 44.4589C20.8771 49.1849 22.1496 53.8322 24.5627 57.9328L20.9232 70.3923C20.8037 70.8017 20.9194 71.2409 21.2279 71.5452C21.4655 71.7803 21.7889 71.908 22.121 71.908C22.2205 71.908 22.3213 71.8961 22.4195 71.8734L35.9727 68.6523C40.111 70.7838 44.7718 71.908 49.486 71.908C65.2607 71.908 78.0948 59.5941 78.0948 44.4589C78.0948 29.3237 65.2607 17.0098 49.486 17.0098ZM63.8775 54.1449C63.2655 55.7703 60.33 57.2538 58.9195 57.4531C57.6532 57.6309 56.0511 57.7073 54.2923 57.1774C53.2263 56.8552 51.858 56.4279 50.1054 55.7106C42.738 52.696 37.9268 45.6678 37.5586 45.2036C37.1916 44.7393 34.5596 41.4311 34.5596 38.0072C34.5596 34.5832 36.4565 32.8992 37.1307 32.2023C37.8049 31.5053 38.5997 31.331 39.0898 31.331C39.5799 31.331 40.0687 31.337 40.4978 31.3561C40.9494 31.3776 41.5551 31.1926 42.1509 32.5507C42.7629 33.9447 44.2319 37.3687 44.4135 37.7183C44.5976 38.0668 44.7195 38.4738 44.4757 38.938C44.2319 39.4023 44.11 39.6923 43.7418 40.0993C43.3736 40.5062 42.9706 41.0063 42.6398 41.3189C42.2716 41.6662 41.8897 42.0422 42.3176 42.7391C42.7455 43.4361 44.2195 45.7144 46.4037 47.5594C49.2086 49.9296 51.5757 50.6648 52.3096 51.0133C53.0434 51.3617 53.4726 51.3033 53.9005 50.839C54.3284 50.3736 55.7364 48.8066 56.2252 48.1108C56.7141 47.415 57.2042 47.5296 57.8783 47.7623C58.5525 47.9939 62.1634 49.6766 62.8973 50.0251C63.6312 50.3736 64.1213 50.5478 64.3054 50.8378C64.4895 51.1266 64.4895 52.5206 63.8775 54.1449Z" fill="#FFF" fill-opacity="0.83"/>
</svg>
